{
  "accessors": [
    {
      "bufferView": 2,
      "componentType": 5126,
      "count": 1489,
      "max": [507.36227416992188, 490.376708984375, 885.507080078125],
      "min": [0, 0, 0],
      "type": "VEC3"
    },
    {
      "bufferView": 2,
      "byteOffset": 17868,
      "componentType": 5126,
      "count": 1489,
      "max": [0.99998778104782104, 1, 1],
      "min": [-0.99998778104782104, -1, -1],
      "type": "VEC3"
    },
    {
      "bufferView": 3,
      "componentType": 5126,
      "count": 1489,
      "max": [1, 1, 0.99788153171539307, 1],
      "min": [-1, -1, -0.99809247255325317, 1],
      "type": "VEC4"
    },
    {
      "bufferView": 1,
      "componentType": 5126,
      "count": 1489,
      "max": [0.99054098129272461, 0.99259698390960693],
      "min": [0.0061019998975098133, 0.0047439998015761375],
      "type": "VEC2"
    },
    {
      "bufferView": 0,
      "componentType": 5125,
      "count": 6420,
      "max": [1488],
      "min": [0],
      "type": "SCALAR"
    }
  ],
  "asset": {
    "extras": {
      "author": "Araon (https://sketchfab.com/araon)",
      "license": "CC-BY-4.0 (http://creativecommons.org/licenses/by/4.0/)",
      "source": "https://sketchfab.com/3d-models/rustic-chair-77afa26a76614fc2b8ed845024af0b58",
      "title": "Rustic chair"
    },
    "generator": "Sketchfab-8.87.0",
    "version": "2.0"
  },
  "bufferViews": [
    {
      "buffer": 0,
      "byteLength": 25680,
      "byteOffset": 0,
      "name": "floatBufferViews",
      "target": 34963
    },
    {
      "buffer": 0,
      "byteLength": 11912,
      "byteOffset": 25680,
      "byteStride": 8,
      "name": "floatBufferViews",
      "target": 34962
    },
    {
      "buffer": 0,
      "byteLength": 35736,
      "byteOffset": 37592,
      "byteStride": 12,
      "name": "floatBufferViews",
      "target": 34962
    },
    {
      "buffer": 0,
      "byteLength": 23824,
      "byteOffset": 73328,
      "byteStride": 16,
      "name": "floatBufferViews",
      "target": 34962
    }
  ],
  "buffers": [
    {
      "byteLength": 97152,
      "uri": "scene.bin"
    }
  ],
  "extensionsRequired": ["KHR_materials_pbrSpecularGlossiness"],
  "extensionsUsed": ["KHR_materials_pbrSpecularGlossiness"],
  "images": [
    {
      "uri": "textures/lambert7SG_diffuse.png"
    },
    {
      "uri": "textures/lambert7SG_specularGlossiness.png"
    },
    {
      "uri": "textures/lambert7SG_normal.png"
    },
    {
      "uri": "textures/lambert7SG_occlusion.png"
    }
  ],
  "materials": [
    {
      "doubleSided": true,
      "emissiveFactor": [0, 0, 0],
      "extensions": {
        "KHR_materials_pbrSpecularGlossiness": {
          "diffuseFactor": [1, 1, 1, 1],
          "diffuseTexture": {
            "index": 0,
            "texCoord": 0
          },
          "glossinessFactor": 1,
          "specularFactor": [1, 1, 1],
          "specularGlossinessTexture": {
            "index": 1,
            "texCoord": 0
          }
        }
      },
      "name": "lambert7SG",
      "normalTexture": {
        "index": 2,
        "scale": 1,
        "texCoord": 0
      },
      "occlusionTexture": {
        "index": 3,
        "strength": 1,
        "texCoord": 0
      }
    }
  ],
  "meshes": [
    {
      "primitives": [
        {
          "attributes": {
            "NORMAL": 1,
            "POSITION": 0,
            "TANGENT": 2,
            "TEXCOORD_0": 3
          },
          "indices": 4,
          "material": 0,
          "mode": 4
        }
      ]
    }
  ],
  "nodes": [
    {
      "children": [1],
      "name": "RootNode (gltf orientation matrix)",
      "rotation": [-0.70710678118654746, -0, -0, 0.70710678118654757]
    },
    {
      "children": [2],
      "matrix": [
        0.0010868778917938471,
        0,
        0,
        0,
        0,
        0.0010868778917938471,
        0,
        0,
        0,
        0,
        0.0010868778917938471,
        0,
        0,
        0,
        0,
        1
      ],
      "name": "RootNode (model correction matrix)"
    },
    {
      "children": [3],
      "matrix": [
        1,
        0,
        0,
        0,
        0,
        1,
        0,
        0,
        0,
        0,
        1,
        0,
        -253.68113708496094,
        910.559326171875,
        -417.56439208984375,
        1
      ],
      "name": "chair_low.obj.cleaner.gles"
    },
    {
      "children": [4],
      "name": ""
    },
    {
      "mesh": 0,
      "name": ""
    }
  ],
  "samplers": [
    {
      "magFilter": 9729,
      "minFilter": 9987,
      "wrapS": 10497,
      "wrapT": 10497
    }
  ],
  "scene": 0,
  "scenes": [
    {
      "name": "OSG_Scene",
      "nodes": [0]
    }
  ],
  "textures": [
    {
      "sampler": 0,
      "source": 0
    },
    {
      "sampler": 0,
      "source": 1
    },
    {
      "sampler": 0,
      "source": 2
    },
    {
      "sampler": 0,
      "source": 3
    }
  ]
}
